<?xml version="1.0" encoding="UTF-8"?>
<svg version="1.1" xmlns="http://www.w3.org/2000/svg" width="441" height="205">
<path d="M0 0 C145.53 0 291.06 0 441 0 C441 67.65 441 135.3 441 205 C295.47 205 149.94 205 0 205 C0 137.35 0 69.7 0 0 Z " fill="#FDFDFD" transform="translate(0,0)"/>
<path d="M0 0 C4.26125496 2.23832953 7.2678701 5.29934071 9.83984375 9.30859375 C10.50338415 12.31172844 10.76477348 15.23753714 10.83984375 18.30859375 C11.43410156 18.45554687 12.02835937 18.6025 12.640625 18.75390625 C23.50718224 21.69446762 32.25270605 27.15000021 40.83984375 34.30859375 C41.50628906 34.81777344 42.17273438 35.32695313 42.859375 35.8515625 C56.38702652 46.65767466 63.57776316 63.48436934 65.83984375 80.30859375 C67.32005169 99.93083748 61.99488107 117.53645853 49.953125 133.0859375 C46.4898666 136.72844032 46.4898666 136.72844032 43.83984375 137.30859375 C41.02734375 135.9296875 41.02734375 135.9296875 37.83984375 133.74609375 C24.556111 125.04457412 10.94520784 121.08070378 -4.91015625 120.99609375 C-6.22294556 120.98775513 -6.22294556 120.98775513 -7.56225586 120.97924805 C-13.33934706 121.04315271 -18.57498481 121.87353421 -24.16015625 123.30859375 C-25.0934375 123.50839844 -26.02671875 123.70820313 -26.98828125 123.9140625 C-37.24950984 126.38006743 -46.53286921 131.40459259 -54.4765625 138.33984375 C-56.16015625 139.30859375 -56.16015625 139.30859375 -58.16015625 139.1875 C-64.5707789 136.37033184 -68.82480863 128.18626928 -72.16015625 122.30859375 C-72.50820312 121.74140625 -72.85625 121.17421875 -73.21484375 120.58984375 C-81.53087096 105.89174914 -82.24512189 86.74761208 -79.16015625 70.49609375 C-75.15184782 56.21764943 -67.72879311 45.49004852 -57.16015625 35.30859375 C-56.44730469 34.59960938 -55.73445313 33.890625 -55 33.16015625 C-48.22233801 26.7860922 -35.79966926 18.30859375 -26.16015625 18.30859375 C-26.15757813 17.74011719 -26.155 17.17164062 -26.15234375 16.5859375 C-25.87305769 11.00952576 -24.69878333 7.92699273 -20.92578125 3.81640625 C-14.78629562 -1.42660581 -7.75288306 -2.48148337 0 0 Z " fill="#F2F2F2" transform="translate(89.16015625,10.69140625)"/>
<path d="M0 0 C0.71220703 -0.00773437 1.42441406 -0.01546875 2.15820312 -0.0234375 C7.2523934 -0.00493 11.66298724 0.8580302 16.5625 2.25 C16.00732744 6.8421681 14.7642366 10.28482146 12.625 14.375 C12.10035156 15.38820313 11.57570313 16.40140625 11.03515625 17.4453125 C10.30619141 18.83363281 10.30619141 18.83363281 9.5625 20.25 C8.89368106 21.58225503 8.22659405 22.91538346 7.5625 24.25 C6.97331787 24.10022705 6.38413574 23.9504541 5.77709961 23.79614258 C-2.57217397 22.24599422 -7.11170854 25.29596043 -13.875 29.9375 C-15.98033369 31.32182002 -18.08580439 32.70593167 -20.19140625 34.08984375 C-21.23441895 34.78835449 -22.27743164 35.48686523 -23.35205078 36.20654297 C-26.25589247 38.12972345 -29.18884559 39.98684945 -32.15234375 41.81640625 C-33.02640869 42.35628174 -33.90047363 42.89615723 -34.80102539 43.45239258 C-36.4411006 44.46303093 -38.08217146 45.47205581 -39.72436523 46.47924805 C-40.45212158 46.93468994 -41.17987793 47.39013184 -41.9296875 47.859375 C-42.56245605 48.25092773 -43.19522461 48.64248047 -43.84716797 49.04589844 C-45.73217914 50.33611852 -45.73217914 50.33611852 -47.4375 53.25 C-47.76792688 56.38516928 -47.76792688 56.38516928 -47.75634766 60.01635742 C-47.76639328 60.69954544 -47.7764389 61.38273346 -47.78678894 62.08662415 C-47.81765886 64.34289719 -47.83466632 66.59905137 -47.8515625 68.85546875 C-47.87027112 70.42060878 -47.88984431 71.98573869 -47.9102478 73.55085754 C-47.96160748 77.66895588 -48.00121256 81.78708694 -48.03839111 85.90533447 C-48.07840679 90.10819619 -48.12951022 94.31092137 -48.1796875 98.51367188 C-48.27649217 106.75902136 -48.36088231 115.00443834 -48.4375 123.25 C-54.48386322 121.96422076 -57.42787408 117.11537322 -60.859375 112.22265625 C-62.11657945 110.26312462 -63.28858659 108.2746586 -64.4375 106.25 C-64.78554687 105.6828125 -65.13359375 105.115625 -65.4921875 104.53125 C-73.80821471 89.83315539 -74.52246564 70.68901833 -71.4375 54.4375 C-67.42919157 40.15905568 -60.00613686 29.43145477 -49.4375 19.25 C-48.72464844 18.54101562 -48.01179688 17.83203125 -47.27734375 17.1015625 C-40.15105503 10.39963183 -29.40231402 3.68530088 -19.4375 3.0625 C-18.7775 3.124375 -18.1175 3.18625 -17.4375 3.25 C-17.0971875 4.673125 -17.0971875 4.673125 -16.75 6.125 C-15.33744419 11.14627504 -12.86026633 15.65414173 -10.4375 20.25 C-10.99705771 16.85731327 -11.81734988 14.24137799 -13.5 11.25 C-15.15366415 8.09788928 -15.8907012 5.87560964 -15.4375 2.25 C-10.14768476 0.49831348 -5.55538642 -0.06000417 0 0 Z " fill="#040404" transform="translate(81.4375,26.75)"/>
<path d="M0 0 C12.29512554 0.27847158 20.79316773 6.32480341 30 14 C30.66644531 14.50917969 31.33289063 15.01835938 32.01953125 15.54296875 C45.54718277 26.34908091 52.73791941 43.17577559 55 60 C56.48020794 79.62224373 51.15503732 97.22786478 39.11328125 112.77734375 C37.1155329 114.87848758 35.73640507 116.08402441 33 117 C32.01 116.505 32.01 116.505 31 116 C30.99191315 115.18425003 30.98382629 114.36850006 30.97549438 113.5280304 C30.89748955 105.83290414 30.8101812 98.13796588 30.71247292 90.4430666 C30.66256927 86.48722642 30.61623885 82.53141218 30.578125 78.57543945 C30.54119704 74.75628956 30.49481699 70.93735982 30.44193649 67.11839867 C30.42343238 65.6628322 30.40830975 64.20721862 30.39665604 62.75158119 C30.37972496 60.70956602 30.35067472 58.66805064 30.31884766 56.6262207 C30.30552399 55.46484085 30.29220032 54.303461 30.2784729 53.10688782 C29.99885811 49.98726008 29.43545042 47.77470883 28 45 C25.80367957 43.90694037 25.80367957 43.90694037 23 43 C20.14740898 41.43446192 17.3919407 39.71145204 14.625 38 C13.8407666 37.51813232 13.0565332 37.03626465 12.24853516 36.53979492 C4.7085018 31.87689957 -2.66959257 26.98424458 -10 22 C-8.20248446 17.27915654 -6.03862628 12.74793489 -3.875 8.1875 C-3.50246094 7.39923828 -3.12992187 6.61097656 -2.74609375 5.79882812 C-1.83204476 3.86526295 -0.91620158 1.93254612 0 0 Z " fill="#030303" transform="translate(100,31)"/>
<path d="M0 0 C3 1 3 1 4.66621399 3.15409851 C6.24549028 6.52380302 6.3622082 8.82092496 6.34057617 12.53442383 C6.34034958 13.83539505 6.34012299 15.13636627 6.33988953 16.47676086 C6.32457184 17.88685453 6.30892389 19.29694465 6.29296875 20.70703125 C6.28736939 22.15719666 6.2831009 23.60736777 6.28010559 25.05754089 C6.26868347 28.86347279 6.23923945 32.66905803 6.20599365 36.47485352 C6.17523566 40.36274527 6.16158805 44.25069336 6.14648438 48.13867188 C6.1143668 55.75927216 6.06320287 63.37958739 6 71 C4.38931641 70.18595703 4.38931641 70.18595703 2.74609375 69.35546875 C1.30995051 68.63270385 -0.1262505 67.91005372 -1.5625 67.1875 C-2.26697266 66.83107422 -2.97144531 66.47464844 -3.69726562 66.10742188 C-15.94009609 59.95779736 -27.00351112 56.73941455 -40.75 56.6875 C-41.62479004 56.68210205 -42.49958008 56.6767041 -43.40087891 56.67114258 C-49.17847686 56.73393069 -54.41442585 57.56483698 -60 59 C-61.39992188 59.29970703 -61.39992188 59.29970703 -62.828125 59.60546875 C-73.66901067 62.21077837 -82.62641727 68.14151079 -92 74 C-92 63.44 -92 52.88 -92 42 C-89.03 42.99 -86.06 43.98 -83 45 C-66.48204691 50.01732825 -48.63384187 49.94097039 -33.13354492 41.94433594 C-16.39586161 32.83105864 -5.78572284 17.90170715 0 0 Z " fill="#A9A29A" transform="translate(125,75)"/>
<path d="M0 0 C24.09 0 48.18 0 73 0 C73 0.66 73 1.32 73 2 C71.46804728 3.37212301 69.87078919 4.6715446 68.25 5.9375 C64.01403047 9.32084489 59.96258418 12.8021071 56 16.5 C52.06497214 20.14278475 48.09211897 23.7211705 44 27.1875 C43.13375 27.92355469 42.2675 28.65960938 41.375 29.41796875 C39 31 39 31 35 31 C32.73046875 29.48828125 32.73046875 29.48828125 30.1875 27.3125 C28.74310547 26.08660156 28.74310547 26.08660156 27.26953125 24.8359375 C26.17920092 23.89118627 25.08938689 22.94583895 24 22 C22.75421111 20.92933267 21.50810508 19.85903428 20.26171875 18.7890625 C16.49196245 15.54407072 12.74404834 12.27458186 9 9 C8.02417969 8.15050781 7.04835938 7.30101562 6.04296875 6.42578125 C5.22441406 5.70777344 4.40585937 4.98976562 3.5625 4.25 C2.86253906 3.63640625 2.16257813 3.0228125 1.44140625 2.390625 C0.96574219 1.93171875 0.49007812 1.4728125 0 1 C0 0.67 0 0.34 0 0 Z " fill="#030303" transform="translate(45,163)"/>
<path d="M0 0 C2.64 0 5.28 0 8 0 C9.97595908 5.35823137 11.04851139 10.78523324 12.125 16.375 C12.30675781 17.30183594 12.48851562 18.22867188 12.67578125 19.18359375 C13.12070896 21.4550668 13.56201206 23.72718046 14 26 C15.60375491 23.05801251 16.51635649 20.31469342 17.25390625 17.05078125 C17.46853516 16.12072266 17.68316406 15.19066406 17.90429688 14.23242188 C18.12150391 13.26884766 18.33871094 12.30527344 18.5625 11.3125 C18.9980646 9.39119027 19.4366995 7.47057311 19.87890625 5.55078125 C20.16616577 4.27714722 20.16616577 4.27714722 20.45922852 2.9777832 C21 1 21 1 22 0 C24.33297433 -0.04092937 26.66705225 -0.04241723 29 0 C29.79467142 2.81168096 30.58579233 5.62428502 31.375 8.4375 C31.59671875 9.22060547 31.8184375 10.00371094 32.046875 10.81054688 C33.54812467 16.17530671 34.83307516 21.55253309 36 27 C38.72107722 16.34277599 38.72107722 16.34277599 41.1875 5.625 C42 2 42 2 43 0 C45.31 0 47.62 0 50 0 C48.97489828 8.89010628 47.02752189 17.4963995 44.9375 26.1875 C44.6679248 27.3108374 44.39834961 28.4341748 44.12060547 29.59155273 C42.13656173 37.72687654 42.13656173 37.72687654 41 40 C38.03 40 35.06 40 32 40 C30.99589032 36.37612543 29.99741092 32.75072349 29 29.125 C28.71382812 28.09246094 28.42765625 27.05992188 28.1328125 25.99609375 C27.86210937 25.00996094 27.59140625 24.02382812 27.3125 23.0078125 C27.06113281 22.09660645 26.80976563 21.18540039 26.55078125 20.24658203 C26 18 26 18 26 16 C25.34 16 24.68 16 24 16 C23.83177734 17.71703125 23.83177734 17.71703125 23.66015625 19.46875 C23.093216 24.00427203 21.86843862 28.17111004 20.4375 32.5 C20.20353516 33.22703125 19.96957031 33.9540625 19.72851562 34.703125 C19.15867219 36.47080261 18.58024596 38.23570969 18 40 C15.03 40 12.06 40 9 40 C7.8746805 35.42951276 6.75382548 30.85796156 5.63696289 26.28540039 C5.2569818 24.73237099 4.87581579 23.17963097 4.4934082 21.62719727 C3.94164758 19.38634413 3.39425961 17.14445972 2.84765625 14.90234375 C2.6778273 14.21663803 2.50799835 13.53093231 2.33302307 12.82444763 C1.29807624 8.55669578 0.55630248 4.34904916 0 0 Z " fill="#080808" transform="translate(164,89)"/>
<path d="M0 0 C2.64 0 5.28 0 8 0 C8.84415762 3.53917574 9.67337694 7.08169141 10.5 10.625 C10.73847656 11.62402344 10.97695313 12.62304688 11.22265625 13.65234375 C12.34893117 18.51141554 13.34312331 22.97324344 13 28 C13.66 28 14.32 28 15 28 C15.16822266 26.34484375 15.16822266 26.34484375 15.33984375 24.65625 C15.9852757 19.49279439 17.25741605 14.53023952 18.5625 9.5 C18.79646484 8.5821875 19.03042969 7.664375 19.27148438 6.71875 C19.84333715 4.47802077 20.41958293 2.23852312 21 0 C23.31 0 25.62 0 28 0 C30.21160371 5.57324134 31.84184776 11.02382579 33.125 16.875 C34.15259592 22.07412539 34.15259592 22.07412539 36 27 C37.98 18.09 39.96 9.18 42 0 C44.64 0 47.28 0 50 0 C47.43718115 13.45837833 44.44213675 26.73930926 41 40 C38.03 40 35.06 40 32 40 C28.76623564 32.23896554 26.94976865 24.15537751 25 16 C24.2053846 18.49909575 23.41425597 20.99921143 22.625 23.5 C22.29242188 24.54414062 22.29242188 24.54414062 21.953125 25.609375 C20.45411033 30.370951 19.16958593 35.14676492 18 40 C15.03 40 12.06 40 9 40 C6.23217222 32.33652489 4.48105488 24.59286455 2.8125 16.625 C2.53986328 15.35527344 2.26722656 14.08554688 1.98632812 12.77734375 C0 3.40824718 0 3.40824718 0 0 Z " fill="#080808" transform="translate(286,89)"/>
<path d="M0 0 C2.31 0 4.62 0 7 0 C7 4.95 7 9.9 7 15 C8.98 13.68 10.96 12.36 13 11 C17.26568014 10.39061712 19.38918695 10.69459348 23.25 12.625 C27.0810033 15.93359376 28.73443481 18.52507999 29.28125 23.62109375 C29.50808904 30.58694274 28.59575869 35.01094454 23.9375 40.375 C19.77707601 42.67651115 15.66457313 42.87757223 11 42 C9.1953125 40.47265625 9.1953125 40.47265625 8 39 C7.67 39.99 7.34 40.98 7 42 C4.69 42 2.38 42 0 42 C0 28.14 0 14.28 0 0 Z " fill="#050505" transform="translate(253,87)"/>
<path d="M0 0 C4.26125496 2.23832953 7.2678701 5.29934071 9.83984375 9.30859375 C10.50338415 12.31172844 10.76477348 15.23753714 10.83984375 18.30859375 C12.48984375 18.63859375 14.13984375 18.96859375 15.83984375 19.30859375 C15.83984375 19.63859375 15.83984375 19.96859375 15.83984375 20.30859375 C14.18984375 20.30859375 12.53984375 20.30859375 10.83984375 20.30859375 C10.31390625 22.13390625 10.31390625 22.13390625 9.77734375 23.99609375 C7.97921878 29.45098249 5.26599928 34.29814907 2.4609375 39.29296875 C1.04501547 41.92692492 -0.11844076 44.50995513 -1.16015625 47.30859375 C-0.50015625 47.96859375 0.15984375 48.62859375 0.83984375 49.30859375 C1.29121251 53.29568448 1.17559015 55.65109039 -0.66015625 59.24609375 C-3.52068237 61.6060278 -5.48415197 62.042166 -9.1875 61.79296875 C-12.67076597 60.93767176 -14.16043913 59.18318711 -16.16015625 56.30859375 C-16.69647908 52.95657605 -16.81278575 51.24092161 -14.84765625 48.43359375 C-13.16015625 47.30859375 -13.16015625 47.30859375 -10.16015625 47.30859375 C-9.83015625 46.31859375 -9.50015625 45.32859375 -9.16015625 44.30859375 C-7.18015625 44.30859375 -5.20015625 44.30859375 -3.16015625 44.30859375 C-2.83015625 42.98859375 -2.50015625 41.66859375 -2.16015625 40.30859375 C-1.50015625 40.30859375 -0.84015625 40.30859375 -0.16015625 40.30859375 C-0.0209375 39.53515625 -0.0209375 39.53515625 0.12109375 38.74609375 C1.30332024 34.73680391 3.38812622 31.13558563 5.3125 27.44140625 C6.8526572 24.43842191 8.23890051 21.64716731 8.83984375 18.30859375 C3.25390414 17.51420505 -2.14661991 17.15316999 -7.78515625 17.18359375 C-8.87183594 17.17779297 -8.87183594 17.17779297 -9.98046875 17.171875 C-14.14883614 17.17942639 -18.05397602 17.492539 -22.16015625 18.30859375 C-21.73069475 23.46213173 -20.53452046 26.95751504 -17.90234375 31.4140625 C-16.98044027 33.76734245 -17.33898682 34.96462278 -18.16015625 37.30859375 C-19.34302151 35.44377046 -20.50584282 33.56622399 -21.66015625 31.68359375 C-22.30984375 30.63945313 -22.95953125 29.5953125 -23.62890625 28.51953125 C-25.25279424 25.11433756 -25.47274725 23.02619391 -25.16015625 19.30859375 C-26.15015625 18.97859375 -27.14015625 18.64859375 -28.16015625 18.30859375 C-27.50015625 18.30859375 -26.84015625 18.30859375 -26.16015625 18.30859375 C-26.15757813 17.74011719 -26.155 17.17164062 -26.15234375 16.5859375 C-25.87305769 11.00952576 -24.69878333 7.92699273 -20.92578125 3.81640625 C-14.78629562 -1.42660581 -7.75288306 -2.48148337 0 0 Z " fill="#948E87" transform="translate(89.16015625,10.69140625)"/>
<path d="M0 0 C3.81248738 1.31970717 5.66857107 2.63368381 8.375 5.625 C10 9 10 9 10 18 C3.4 18 -3.2 18 -10 18 C-8.66436384 22.94463635 -8.66436384 22.94463635 -6 24 C-1.32818984 24.41527201 1.17508513 23.69993991 5 21 C6.32 21.99 7.64 22.98 9 24 C7.53549191 28.63760897 7.53549191 28.63760897 5.3203125 30.13671875 C0.11746464 32.07245844 -7.00206922 32.34103373 -12.11328125 30.0546875 C-16.06931882 26.93304992 -17.72294712 23.21320146 -18.3359375 18.31640625 C-18.42036083 12.36456141 -18.23255853 8.56670789 -14 4 C-9.44078653 0.06249745 -5.82257935 -0.94325785 0 0 Z " fill="#0B0B0B" transform="translate(422,98)"/>
<path d="M0 0 C3.81248738 1.31970717 5.66857107 2.63368381 8.375 5.625 C10 9 10 9 10 18 C3.4 18 -3.2 18 -10 18 C-8.66436384 22.94463635 -8.66436384 22.94463635 -6 24 C-1.32818984 24.41527201 1.17508513 23.69993991 5 21 C6.32 21.99 7.64 22.98 9 24 C7.53549191 28.63760897 7.53549191 28.63760897 5.3203125 30.13671875 C0.11746464 32.07245844 -7.00206922 32.34103373 -12.11328125 30.0546875 C-16.06931882 26.93304992 -17.72294712 23.21320146 -18.3359375 18.31640625 C-18.42036083 12.36456141 -18.23255853 8.56670789 -14 4 C-9.44078653 0.06249745 -5.82257935 -0.94325785 0 0 Z " fill="#0B0B0B" transform="translate(236,98)"/>
<path d="M0 0 C5.55591203 3.29214499 5.55591203 3.29214499 6.56982422 7.19140625 C6.81456748 9.74772668 6.88265922 12.24474763 6.875 14.8125 C6.895625 15.69615234 6.91625 16.57980469 6.9375 17.49023438 C6.98440843 19.6597492 6.99574089 21.8299823 7 24 C7.99 24.33 8.98 24.66 10 25 C10 26.98 10 28.96 10 31 C2.49230769 31.36923077 2.49230769 31.36923077 0 29.5 C-0.33 29.005 -0.66 28.51 -1 28 C-1.39316406 28.48597656 -1.78632813 28.97195312 -2.19140625 29.47265625 C-5.11513779 31.94172544 -7.93142439 31.46536507 -11.6171875 31.36328125 C-14 31 -14 31 -16.5625 29.125 C-18.98280219 25.54716198 -19.59815982 23.35802156 -19 19 C-14.38192478 13.63304772 -8.74544581 12.47631643 -2 11 C-2.33 9.68 -2.66 8.36 -3 7 C-7.42664564 6.69504515 -7.42664564 6.69504515 -11.375 8.5 C-11.91125 8.995 -12.4475 9.49 -13 10 C-14.9375 9.1875 -14.9375 9.1875 -17 8 C-17.33 7.01 -17.66 6.02 -18 5 C-12.49565838 0.69492834 -7.05178167 -1.87900139 0 0 Z " fill="#0A0A0A" transform="translate(358,98)"/>
<path d="M0 0 C24.09 0 48.18 0 73 0 C73 0.66 73 1.32 73 2 C71.46804728 3.37212301 69.87078919 4.6715446 68.25 5.9375 C64.01403047 9.32084489 59.96258418 12.8021071 56 16.5 C52.06497214 20.14278475 48.09211897 23.7211705 44 27.1875 C43.13375 27.92355469 42.2675 28.65960938 41.375 29.41796875 C39 31 39 31 35 31 C32.23828125 29.1015625 32.23828125 29.1015625 29.3125 26.625 C28.33925781 25.81289062 27.36601563 25.00078125 26.36328125 24.1640625 C24 22 24 22 23 20 C24.60875 19.6596875 24.60875 19.6596875 26.25 19.3125 C38.1353005 16.30945254 46.14907489 12.27638767 53 2 C35.84 2 18.68 2 1 2 C0.67 1.34 0.34 0.68 0 0 Z " fill="#474748" transform="translate(45,163)"/>
<path d="M0 0 C2.64 0 5.28 0 8 0 C9.00777029 2.74737377 10.00641446 5.49749952 11 8.25 C11.28617187 9.02730469 11.57234375 9.80460937 11.8671875 10.60546875 C12.13789063 11.35957031 12.40859375 12.11367187 12.6875 12.890625 C13.06455078 13.92751465 13.06455078 13.92751465 13.44921875 14.98535156 C14 17 14 17 14 21 C14.66 21 15.32 21 16 21 C16.226875 19.7625 16.45375 18.525 16.6875 17.25 C18.01145277 11.19074171 20.49478042 5.65108692 23 0 C25.31 0 27.62 0 30 0 C29.33372522 3.82263641 28.26037893 7.31304378 26.93359375 10.95703125 C26.53076172 12.06884766 26.12792969 13.18066406 25.71289062 14.32617188 C25.29201172 15.47666016 24.87113281 16.62714844 24.4375 17.8125 C24.01275391 18.98232422 23.58800781 20.15214844 23.15039062 21.35742188 C22.10344692 24.23945793 21.05321116 27.12024968 20 30 C16.7 30 13.4 30 10 30 C8.5695796 26.21204894 7.1456021 22.42174552 5.72753906 18.62915039 C5.24427735 17.33942542 4.75926331 16.05035562 4.27246094 14.76196289 C3.57286085 12.90945042 2.88008767 11.05436431 2.1875 9.19921875 C1.76855469 8.08377686 1.34960938 6.96833496 0.91796875 5.8190918 C0 3 0 3 0 0 Z " fill="#070707" transform="translate(370,99)"/>
<path d="M0 0 C3.37014218 2.29782422 5.46868178 4.48561293 7.75 7.875 C8.14940768 10.19793544 8.49184319 12.53215758 8.75 14.875 C8.03457031 14.86976318 7.31914063 14.86452637 6.58203125 14.85913086 C3.30469662 14.83819704 0.02737613 14.82528798 -3.25 14.8125 C-4.37535156 14.80412109 -5.50070313 14.79574219 -6.66015625 14.78710938 C-12.62584397 14.76966584 -18.35287573 14.95718777 -24.25 15.875 C-23.92277993 9.54874535 -23.0100501 6.42349232 -18.25 1.875 C-12.46090076 -2.07211312 -6.4927354 -2.24748533 0 0 Z " fill="#F9F9F9" transform="translate(89.25,13.125)"/>
<path d="M0 0 C2.81346113 2.86556226 3.43145514 5.03457503 3.4375 9 C3.3241382 12.34170863 3.16423011 13.7347052 1.375 16.625 C-1.68836492 18.39852706 -3.51365432 18.51924297 -7 18 C-9.55949546 16.14657225 -9.97918798 15.06243607 -11 12 C-11.56338028 4.90140845 -11.56338028 4.90140845 -9.4375 1.5 C-6.06575823 -0.57491801 -3.88409465 -0.56495922 0 0 Z " fill="#F4F4F4" transform="translate(271,105)"/>
<path d="M0 0 C4.26125496 2.23832953 7.2678701 5.29934071 9.83984375 9.30859375 C10.50338415 12.31172844 10.76477348 15.23753714 10.83984375 18.30859375 C12.48984375 18.63859375 14.13984375 18.96859375 15.83984375 19.30859375 C15.83984375 19.63859375 15.83984375 19.96859375 15.83984375 20.30859375 C13.85984375 20.30859375 11.87984375 20.30859375 9.83984375 20.30859375 C9.83984375 19.64859375 9.83984375 18.98859375 9.83984375 18.30859375 C8.84984375 17.97859375 7.85984375 17.64859375 6.83984375 17.30859375 C7.49984375 17.30859375 8.15984375 17.30859375 8.83984375 17.30859375 C7.20377389 10.72125984 5.55058959 7.11575765 -0.16015625 3.30859375 C-4.7727459 1.77106387 -9.48067224 1.44154824 -14.1640625 2.95703125 C-18.01615313 4.90387619 -20.64832962 7.37927907 -22.5625 11.265625 C-24.39578437 17.53234216 -22.46707956 23.10719059 -19.53515625 28.68359375 C-19.06851563 29.47507812 -18.601875 30.2665625 -18.12109375 31.08203125 C-17.00614297 33.66545379 -17.18048488 34.72367773 -18.16015625 37.30859375 C-19.34302151 35.44377046 -20.50584282 33.56622399 -21.66015625 31.68359375 C-22.30984375 30.63945313 -22.95953125 29.5953125 -23.62890625 28.51953125 C-25.25279424 25.11433756 -25.47274725 23.02619391 -25.16015625 19.30859375 C-26.15015625 18.97859375 -27.14015625 18.64859375 -28.16015625 18.30859375 C-27.50015625 18.30859375 -26.84015625 18.30859375 -26.16015625 18.30859375 C-26.15757813 17.74011719 -26.155 17.17164062 -26.15234375 16.5859375 C-25.87305769 11.00952576 -24.69878333 7.92699273 -20.92578125 3.81640625 C-14.78629562 -1.42660581 -7.75288306 -2.48148337 0 0 Z " fill="#B5AFA8" transform="translate(89.16015625,10.69140625)"/>
<path d="M0 0 C0.99 0.66 1.98 1.32 3 2 C3.52899843 6.00527382 3.3449755 8.32442297 1.5 11.9375 C-1.36052612 14.29743405 -3.32399572 14.73357225 -7.02734375 14.484375 C-10.51060972 13.62907801 -12.00028288 11.87459336 -14 9 C-14.4375 5.8125 -14.4375 5.8125 -14 3 C-13.34 2.34 -12.68 1.68 -12 1 C-11.71125 2.134375 -11.4225 3.26875 -11.125 4.4375 C-10.75375 5.613125 -10.3825 6.78875 -10 8 C-7.23749964 9.38125018 -5.05268901 9.19079306 -2 9 C0.41121859 7.04366025 0.41121859 7.04366025 0.125 3.375 C0.08375 2.26125 0.0425 1.1475 0 0 Z " fill="#A49E96" transform="translate(87,58)"/>
<path d="M0 0 C0.66 0 1.32 0 2 0 C2.66 1.65 3.32 3.3 4 5 C6.88437779 3.70700306 8.87219421 2.34058637 11 0 C12.32850242 6.40096618 12.32850242 6.40096618 10.9375 8.9375 C8.08720774 10.50056349 6.19919131 10.45702733 3 10 C0.625 8.3125 0.625 8.3125 -1 6 C-1.3125 3.3125 -1.3125 3.3125 -1 1 C-0.67 0.67 -0.34 0.34 0 0 Z " fill="#0E0D0D" transform="translate(76,58)"/>
<path d="M0 0 C2.0625 0.4375 2.0625 0.4375 4 1 C4.33 2.32 4.66 3.64 5 5 C3.68 5.33 2.36 5.66 1 6 C0.67 7.32 0.34 8.64 0 10 C-1.32 10.33 -2.64 10.66 -4 11 C-4.33 12.32 -4.66 13.64 -5 15 C-6.65 14.67 -8.3 14.34 -10 14 C-10 12.68 -10 11.36 -10 10 C-8.68 9.67 -7.36 9.34 -6 9 C-5.67 7.68 -5.34 6.36 -5 5 C-4.34 5.33 -3.68 5.66 -3 6 C-3.33 6.99 -3.66 7.98 -4 9 C-3.34 8.67 -2.68 8.34 -2 8 C-1.62599214 5.67284 -1.29235267 3.33882138 -1 1 C-0.67 0.67 -0.34 0.34 0 0 Z " fill="#F4F4F4" transform="translate(61,142)"/>
<path d="M0 0 C3.4375 0.8125 3.4375 0.8125 5.4375 3.8125 C5.4375 4.8025 5.4375 5.7925 5.4375 6.8125 C1.1475 6.8125 -3.1425 6.8125 -7.5625 6.8125 C-7.2325 5.1625 -6.9025 3.5125 -6.5625 1.8125 C-3.5625 -0.1875 -3.5625 -0.1875 0 0 Z " fill="#E1E1E1" transform="translate(419.5625,104.1875)"/>
<path d="M0 0 C3.4375 0.8125 3.4375 0.8125 5.4375 3.8125 C5.4375 4.8025 5.4375 5.7925 5.4375 6.8125 C1.1475 6.8125 -3.1425 6.8125 -7.5625 6.8125 C-7.2325 5.1625 -6.9025 3.5125 -6.5625 1.8125 C-3.5625 -0.1875 -3.5625 -0.1875 0 0 Z " fill="#E1E1E1" transform="translate(233.5625,104.1875)"/>
<path d="M0 0 C0.32728047 3.60008519 0.40422813 5.41611492 -1.6875 8.4375 C-4 10 -4 10 -6.75 9.75 C-7.4925 9.5025 -8.235 9.255 -9 9 C-9.625 6.625 -9.625 6.625 -10 4 C-7.41339157 1.41339157 -3.74482865 0 0 0 Z " fill="#F6F6F6" transform="translate(357,114)"/>
<path d="M0 0 C1.0625 1.875 1.0625 1.875 2 4 C1.67 4.66 1.34 5.32 1 6 C-1 6.33333333 -3 6.66666667 -5 7 C-5.33 7.66 -5.66 8.32 -6 9 C-6.99 9 -7.98 9 -9 9 C-9.66 7.02 -10.32 5.04 -11 3 C-7.16674383 0.29417212 -4.67461851 -0.32613618 0 0 Z " fill="#F0F0F0" transform="translate(85,49)"/>
<path d="M0 0 C5.48995191 -0.08895755 9.17715873 0.64629849 13.4375 4.25 C17.3632784 8.08212165 18.91581796 10.76917593 19.125 16.3125 C19.08375 17.199375 19.0425 18.08625 19 19 C20.65 19.33 22.3 19.66 24 20 C24 20.33 24 20.66 24 21 C22.02 21 20.04 21 18 21 C18 20.34 18 19.68 18 19 C17.01 18.67 16.02 18.34 15 18 C15.66 18 16.32 18 17 18 C15.40174278 11.56491171 13.80761238 7.72563813 8 4 C5.35715794 2.82381624 2.75666369 1.903045 0 1 C0 0.67 0 0.34 0 0 Z " fill="#ADA7A1" transform="translate(81,10)"/>
<path d="M0 0 C1.32 0.66 2.64 1.32 4 2 C4 2.66 4 3.32 4 4 C3.01 4.495 3.01 4.495 2 5 C2 5.66 2 6.32 2 7 C0.8125 8.6875 0.8125 8.6875 -1 10 C-3.6875 9.6875 -3.6875 9.6875 -6 9 C-5.67 7.35 -5.34 5.7 -5 4 C-4.34 4 -3.68 4 -3 4 C-3 3.34 -3 2.68 -3 2 C-2.01 1.34 -1.02 0.68 0 0 Z " fill="#F3F3F3" transform="translate(196,9)"/>
<path d="M0 0 C0.99 0.33 1.98 0.66 3 1 C3 1.66 3 2.32 3 3 C3.66 3.33 4.32 3.66 5 4 C0.05 6.97 0.05 6.97 -5 10 C-5.33 8.68 -5.66 7.36 -6 6 C-4.68 5.34 -3.36 4.68 -2 4 C-2 3.01 -2 2.02 -2 1 C-1.34 0.67 -0.68 0.34 0 0 Z " fill="#E5E4E4" transform="translate(95,109)"/>
<path d="M0 0 C0.66 0.66 1.32 1.32 2 2 C1.625 5.125 1.625 5.125 1 8 C-0.32 7.67 -1.64 7.34 -3 7 C-3 8.32 -3 9.64 -3 11 C-4.32 10.34 -5.64 9.68 -7 9 C-6.67 7.68 -6.34 6.36 -6 5 C-5.34 5 -4.68 5 -4 5 C-3.71125 4.360625 -3.4225 3.72125 -3.125 3.0625 C-2 1 -2 1 0 0 Z " fill="#F3F3F3" transform="translate(151,164)"/>
<path d="M0 0 C0.99 0.33 1.98 0.66 3 1 C2.25 7.75 2.25 7.75 0 10 C-2.0625 9.8125 -2.0625 9.8125 -4 9 C-4.33 8.01 -4.66 7.02 -5 6 C-4 4 -4 4 -1 3 C-0.67 2.01 -0.34 1.02 0 0 Z " fill="#F4F4F4" transform="translate(176,138)"/>
<path d="M0 0 C1.4370809 -0.05422947 2.87475462 -0.09289723 4.3125 -0.125 C5.11300781 -0.14820313 5.91351563 -0.17140625 6.73828125 -0.1953125 C9 0 9 0 12 2 C11.34 2 10.68 2 10 2 C10 2.66 10 3.32 10 4 C7.5 5.625 7.5 5.625 5 7 C2 3.25 2 3.25 2 1 C1.34 0.67 0.68 0.34 0 0 Z " fill="#F1F1F1" transform="translate(77,12)"/>
<path d="M0 0 C1.98 0 3.96 0 6 0 C6.33 0.99 6.66 1.98 7 3 C5.75 5.1875 5.75 5.1875 4 7 C3.01 7 2.02 7 1 7 C-0.0625 4.625 -0.0625 4.625 -1 2 C-0.67 1.34 -0.34 0.68 0 0 Z " fill="#625E59" transform="translate(79,56)"/>
<path d="M0 0 C0.33 0 0.66 0 1 0 C1.18175781 0.58007812 1.36351563 1.16015625 1.55078125 1.7578125 C2.74404658 5.466114 3.92381448 8.8557917 5.75 12.3125 C7.14972335 15.32190521 6.95287489 15.98041673 6 19 C-1.67606189 7.34233993 -1.67606189 7.34233993 -0.9375 2.75 C-0.628125 1.8425 -0.31875 0.935 0 0 Z " fill="#847F78" transform="translate(65,29)"/>
<path d="M0 0 C0.66 0.33 1.32 0.66 2 1 C2.33 1.99 2.66 2.98 3 4 C3.99 3.67 4.98 3.34 6 3 C5.67 3.99 5.34 4.98 5 6 C4.01 6 3.02 6 2 6 C1.34 7.32 0.68 8.64 0 10 C-3.875 8.25 -3.875 8.25 -5 6 C-2.525 6.99 -2.525 6.99 0 8 C-0.99 6.68 -1.98 5.36 -3 4 C-2.34 3.67 -1.68 3.34 -1 3 C-0.67 2.01 -0.34 1.02 0 0 Z " fill="#F1F1F1" transform="translate(69,134)"/>
<path d="M0 0 C1.32 0.33 2.64 0.66 4 1 C4 1.66 4 2.32 4 3 C4.66 3.33 5.32 3.66 6 4 C3 6 3 6 0 6 C-0.33 6.33 -0.66 6.66 -1 7 C-0.67 7.66 -0.34 8.32 0 9 C-1.32 8.34 -2.64 7.68 -4 7 C-3.67 5.68 -3.34 4.36 -3 3 C-2.01 3 -1.02 3 0 3 C0 2.01 0 1.02 0 0 Z " fill="#F2F2F2" transform="translate(180,24)"/>
<path d="M0 0 C0.97001953 0.00451172 1.94003906 0.00902344 2.93945312 0.01367188 C5.3138676 0.0253685 7.68815021 0.04175914 10.0625 0.0625 C10.0625 0.3925 10.0625 0.7225 10.0625 1.0625 C8.80953125 1.12308594 7.5565625 1.18367187 6.265625 1.24609375 C4.61457276 1.33052256 2.96353165 1.41516939 1.3125 1.5 C0.4875 1.53931641 -0.3375 1.57863281 -1.1875 1.61914062 C-1.98671875 1.66103516 -2.7859375 1.70292969 -3.609375 1.74609375 C-4.3425293 1.78275146 -5.07568359 1.81940918 -5.83105469 1.85717773 C-7.95124534 2.00683499 -7.95124534 2.00683499 -10.00488281 2.60961914 C-12.79329335 3.26304278 -15.16562048 2.62947536 -17.9375 2.0625 C-17.9375 1.7325 -17.9375 1.4025 -17.9375 1.0625 C-11.92889451 0.00411873 -6.09122439 -0.05412571 0 0 Z " fill="#DCDAD7" transform="translate(84.9375,130.9375)"/>
<path d="M0 0 C1.32 0.66 2.64 1.32 4 2 C4 5 4 5 2.75 6.75 C1 8 1 8 -1.0625 7.9375 C-3.53848865 6.73944098 -4.02617818 5.51570636 -5 3 C-4.01 3 -3.02 3 -2 3 C-1.67 3.99 -1.34 4.98 -1 6 C-0.34 5.34 0.32 4.68 1 4 C0.34 3.01 -0.32 2.02 -1 1 C-0.67 0.67 -0.34 0.34 0 0 Z " fill="#F2F2F2" transform="translate(156,49)"/>
<path d="M0 0 C0 0.33 0 0.66 0 1 C-0.969375 1.28875 -1.93875 1.5775 -2.9375 1.875 C-6.10664203 2.64214682 -6.10664203 2.64214682 -7 5 C-6.60061233 7.09821215 -6.60061233 7.09821215 -6 9 C-6.99 9 -7.98 9 -9 9 C-9.66 7.02 -10.32 5.04 -11 3 C-7.16674383 0.29417212 -4.67461851 -0.32613618 0 0 Z " fill="#ABA8A4" transform="translate(85,49)"/>
<path d="M0 0 C2.97 0.495 2.97 0.495 6 1 C5.67 2.32 5.34 3.64 5 5 C3.68 5 2.36 5 1 5 C0.67 3.35 0.34 1.7 0 0 Z " fill="#EAEAEA" transform="translate(190,124)"/>
<path d="M0 0 C2.02045442 0.60183749 4.02111039 1.27306096 6 2 C6.33 2.66 6.66 3.32 7 4 C5.02 4.99 5.02 4.99 3 6 C2.01 5.34 1.02 4.68 0 4 C0 2.68 0 1.36 0 0 Z " fill="#E7E7E7" transform="translate(98,105)"/>
<path d="M0 0 C1 3 1 3 -0.3125 5.6875 C-0.869375 6.450625 -1.42625 7.21375 -2 8 C-2.66 8 -3.32 8 -4 8 C-4 7.34 -4 6.68 -4 6 C-5.65 6 -7.3 6 -9 6 C-9 5.67 -9 5.34 -9 5 C-7.02 5 -5.04 5 -3 5 C-2.814375 4.0409375 -2.814375 4.0409375 -2.625 3.0625 C-2.41875 2.381875 -2.2125 1.70125 -2 1 C-1.34 0.67 -0.68 0.34 0 0 Z " fill="#B1ACA6" transform="translate(89,50)"/>
<path d="M0 0 C1.32 1.32 2.64 2.64 4 4 C3.34 4 2.68 4 2 4 C2 4.66 2 5.32 2 6 C0.68 5.34 -0.64 4.68 -2 4 C-2 3.01 -2 2.02 -2 1 C-1.34 0.67 -0.68 0.34 0 0 Z " fill="#F2F2F2" transform="translate(38,165)"/>
<path d="M0 0 C1.65 0 3.3 0 5 0 C5.33 0.99 5.66 1.98 6 3 C5.67 3.66 5.34 4.32 5 5 C3.0625 4.1875 3.0625 4.1875 1 3 C0.67 2.01 0.34 1.02 0 0 Z " fill="#F1F1F1" transform="translate(93,0)"/>
<path d="M0 0 C3 1 3 1 4.1875 3.0625 C4.455625 3.701875 4.72375 4.34125 5 5 C3.68 5 2.36 5 1 5 C0.34 3.68 -0.32 2.36 -1 1 C-0.67 0.67 -0.34 0.34 0 0 Z " fill="#F2F2F2" transform="translate(156,159)"/>
<path d="M0 0 C0.66 0.99 1.32 1.98 2 3 C0.515 5.475 0.515 5.475 -1 8 C-1.66 7.67 -2.32 7.34 -3 7 C-1.125 2.25 -1.125 2.25 0 0 Z " fill="#86817A" transform="translate(92,43)"/>
</svg>
